<svg width="558" height="126" viewBox="0 0 558 126" fill="none" xmlns="http://www.w3.org/2000/svg">
<path d="M81.281 15.5118C77.1655 13.7002 72.5927 12.7944 67.7913 12.7944V18.7953C71.6781 18.7953 75.3364 19.5879 78.6516 20.9465C88.7117 25.1359 95.7995 34.9864 95.7995 46.5353C95.7995 61.8206 83.2244 74.2753 67.7913 74.2753C63.7901 74.2753 59.9033 73.3696 56.4737 71.8976C63.5615 65.6703 68.0199 56.6123 68.0199 46.5353H61.961C61.961 55.5933 57.6169 63.519 50.8721 68.6141C44.1272 63.519 39.7831 55.5933 39.7831 46.5353H33.7242C33.7242 56.6123 38.1826 65.6703 45.3847 71.8976C41.9552 73.3696 38.0683 74.2753 34.0671 74.2753C18.634 74.2753 6.05892 61.8206 6.05892 46.5353C6.05892 35.0996 13.1467 25.2491 23.2068 20.9465C26.5221 19.5879 30.1803 18.7953 34.0671 18.7953V12.7944C29.2657 12.7944 24.693 13.8134 20.5775 15.5118C8.45962 20.7201 0 32.7219 0 46.5353C0 65.1042 15.3188 80.2763 34.0671 80.2763C40.2404 80.2763 45.9563 78.6911 50.9864 75.8605C56.0164 78.6911 61.7324 80.2763 67.9056 80.2763C86.654 80.2763 101.973 65.1042 101.973 46.5353C101.858 32.7219 93.3988 20.7201 81.281 15.5118Z" fill="#009DA8"/>
<path d="M56.7023 5.77446C56.7023 8.94475 54.073 11.5489 50.872 11.5489C47.6711 11.5489 45.0417 8.94475 45.0417 5.77446C45.0417 2.60417 47.6711 0 50.872 0C54.073 0 56.7023 2.60417 56.7023 5.77446Z" fill="#FFCD1C"/>
<path d="M67.7912 12.7944C61.6179 12.7944 55.902 14.3795 50.8719 17.2101C45.8419 14.3795 40.1259 12.7944 33.9527 12.7944V18.7953C37.9539 18.7953 41.8407 19.7011 45.2703 21.173C38.1825 27.4004 33.6097 36.4583 33.6097 46.5353H39.6687C39.6687 37.4773 44.0128 29.5516 50.7576 24.4565C57.5025 29.5516 61.8466 37.4773 61.8466 46.5353H67.9055C67.9055 36.4583 63.4471 27.4004 56.2449 21.173C59.6745 19.5879 63.5614 18.7953 67.5625 18.7953V12.7944H67.7912Z" fill="#FFCD1C"/>
<path d="M165.877 58.0842C163.248 62.9529 158.218 65.8967 152.273 65.8967C143.242 65.8967 136.269 58.8768 136.269 49.9321C136.269 40.9873 143.356 33.9674 152.273 33.9674C158.332 33.9674 163.362 36.9112 165.649 41.6667L165.991 42.4592L170.793 39.7418L170.45 39.0625C167.363 32.4955 160.39 28.4194 152.273 28.4194C139.812 28.4194 130.438 37.5906 130.438 49.9321C130.438 62.1603 139.812 71.4447 152.273 71.4447C160.276 71.4447 167.363 67.4819 170.793 60.9148L171.136 60.2355L166.334 57.4049L165.877 58.0842Z" fill="#009DA8"/>
<path d="M232.525 36.2319C228.638 31.1368 222.922 28.4194 216.178 28.4194C204.06 28.4194 194.686 37.817 194.686 49.9321C194.686 61.9339 204.174 71.4447 216.178 71.4447C222.922 71.4447 228.638 68.7273 232.525 63.6322V70.5389H238.241V29.3252H232.525V36.2319ZM232.525 49.9321C232.525 58.8768 225.552 65.8967 216.521 65.8967C207.489 65.8967 200.516 58.8768 200.516 49.9321C200.516 40.9873 207.604 33.9674 216.521 33.9674C225.552 33.8542 232.525 40.8741 232.525 49.9321Z" fill="#009DA8"/>
<path d="M287.856 28.4194C281.111 28.4194 275.395 31.25 271.508 36.3451V29.2119H265.792V86.1639H271.508V63.4058C275.281 68.5009 280.997 71.3315 287.856 71.3315C299.974 71.3315 309.348 61.9339 309.348 49.8188C309.348 37.817 299.859 28.4194 287.856 28.4194ZM303.632 49.932C303.632 58.8768 296.544 65.8967 287.627 65.8967C278.596 65.8967 271.623 58.8768 271.623 49.932C271.623 40.9873 278.71 33.9674 287.627 33.9674C296.544 33.8542 303.632 40.8741 303.632 49.932Z" fill="#009DA8"/>
<path d="M345.93 63.2925L331.754 29.778L331.526 29.3251H325.353L342.958 70.3124V70.4257H349.017L366.507 29.3251H360.449L345.93 63.2925Z" fill="#009DA8"/>
<path d="M397.145 29.3251H391.429V70.5389H397.145V29.3251Z" fill="#009DA8"/>
<path d="M394.173 16.9836C392 16.9836 390.171 18.7952 390.171 20.9465C390.171 23.0978 392 24.9094 394.173 24.9094C396.459 24.9094 398.174 23.0978 398.174 20.9465C398.288 18.7952 396.459 16.9836 394.173 16.9836Z" fill="#009DA8"/>
<path d="M436.699 64.3116C435.785 63.519 435.328 61.9339 435.328 59.6694V34.8732H445.616V29.3252H435.328V18.4556H429.612V59.7826C429.612 63.8587 430.64 66.6893 432.927 68.6142C434.87 70.1993 437.614 70.9919 441.272 70.9919C442.873 70.9919 444.587 70.8786 446.531 70.539L447.217 70.4257V65.2174L446.302 65.3306C441.615 65.6703 438.3 65.7835 436.699 64.3116Z" fill="#009DA8"/>
<path d="M557.535 65.2174C552.962 65.6703 549.532 65.7835 547.932 64.3116C547.017 63.519 546.56 61.9339 546.56 59.6694V18.4556H540.844V59.7826C540.844 63.8587 541.873 66.6893 544.159 68.6142C546.103 70.1993 548.846 70.9919 552.505 70.9919C554.105 70.9919 555.82 70.8786 557.763 70.539L558.449 70.4257V65.2174H557.535Z" fill="#009DA8"/>
<path d="M507.349 36.2319C503.462 31.1368 497.746 28.4194 491.001 28.4194C478.883 28.4194 469.509 37.817 469.509 49.9321C469.509 61.9339 478.998 71.4447 491.001 71.4447C497.746 71.4447 503.462 68.7273 507.349 63.6322V70.5389H513.065V29.3252H507.349V36.2319ZM507.349 49.9321C507.349 58.8768 500.375 65.8967 491.344 65.8967C482.313 65.8967 475.339 58.8768 475.339 49.9321C475.339 40.9873 482.427 33.9674 491.344 33.9674C500.375 33.8542 507.349 40.8741 507.349 49.9321Z" fill="#009DA8"/>
<path d="M136.269 112.206H138.555V122.622H143.928V124.66H136.383V112.206H136.269Z" fill="#009DA8"/>
<path d="M145.871 112.206H148.043L146.557 116.848H144.614L145.871 112.206Z" fill="#009DA8"/>
<path d="M153.988 112.206H162.333V114.244H156.274V117.301H162.105V119.339H156.274V122.735H162.676V124.773H153.988V112.206Z" fill="#009DA8"/>
<path d="M171.479 118.206L167.249 112.206H170.107L173.079 116.848L176.052 112.206H178.795L174.68 118.206L179.253 124.773H176.395L173.079 119.452L169.764 124.773H167.02L171.479 118.206Z" fill="#009DA8"/>
<path d="M184.054 112.206H188.284C188.855 112.206 189.427 112.319 189.999 112.432C190.57 112.545 191.027 112.772 191.485 112.998C191.942 113.225 192.285 113.677 192.514 114.13C192.742 114.583 192.857 115.149 192.857 115.829C192.857 116.621 192.742 117.301 192.399 117.754C192.171 118.206 191.713 118.659 191.256 118.886C190.799 119.112 190.227 119.339 189.656 119.452C189.084 119.565 188.398 119.565 187.712 119.565H186.34V124.773H184.054V112.206ZM187.712 117.64C188.055 117.64 188.398 117.64 188.741 117.64C189.084 117.64 189.427 117.527 189.656 117.414C189.999 117.301 190.227 117.074 190.341 116.848C190.57 116.621 190.57 116.282 190.57 115.829C190.57 115.489 190.456 115.149 190.341 114.923C190.227 114.697 189.999 114.47 189.656 114.357C189.427 114.244 189.084 114.13 188.741 114.13C188.398 114.13 188.055 114.13 187.826 114.13H186.34V117.64H187.712V117.64Z" fill="#009DA8"/>
<path d="M198.573 112.206H206.918V114.244H200.859V117.301H206.689V119.339H200.859V122.735H207.261V124.773H198.573V112.206Z" fill="#009DA8"/>
<path d="M212.977 112.206H217.321C217.892 112.206 218.464 112.206 219.036 112.319C219.607 112.432 220.065 112.658 220.522 112.885C220.979 113.111 221.322 113.564 221.551 114.017C221.779 114.47 221.894 115.036 221.894 115.716C221.894 116.621 221.665 117.414 221.093 117.98C220.636 118.546 219.836 118.999 218.921 119.112L222.237 124.66H219.493L216.521 119.339H214.92V124.66H212.634V112.206H212.977ZM216.978 117.527C217.321 117.527 217.664 117.527 217.892 117.527C218.235 117.527 218.464 117.414 218.807 117.301C219.036 117.187 219.264 117.074 219.493 116.735C219.607 116.508 219.722 116.168 219.722 115.829C219.722 115.489 219.607 115.149 219.493 114.923C219.379 114.697 219.15 114.583 218.921 114.47C218.693 114.357 218.35 114.244 218.121 114.244C217.778 114.244 217.55 114.244 217.207 114.244H215.263V117.64H216.978V117.527Z" fill="#009DA8"/>
<path d="M230.01 114.244H226.123V112.206H236.069V114.244H232.182V124.66H229.896V114.244H230.01Z" fill="#009DA8"/>
<path d="M250.016 112.206H254.932C255.732 112.206 256.532 112.319 257.333 112.545C258.133 112.772 258.819 113.225 259.39 113.677C259.962 114.244 260.419 114.81 260.762 115.602C261.105 116.395 261.334 117.301 261.334 118.32C261.334 119.339 261.105 120.358 260.762 121.15C260.305 121.943 259.848 122.622 259.162 123.075C258.476 123.641 257.79 123.981 256.99 124.207C256.189 124.434 255.389 124.547 254.703 124.547H250.016V112.206ZM253.903 122.735C254.589 122.735 255.275 122.622 255.846 122.509C256.418 122.396 256.99 122.056 257.447 121.716C257.904 121.377 258.247 120.924 258.59 120.358C258.819 119.792 259.047 119.225 259.047 118.433C259.047 117.64 258.933 117.074 258.704 116.508C258.476 115.942 258.133 115.489 257.676 115.149C257.218 114.81 256.761 114.583 256.189 114.357C255.618 114.244 254.932 114.13 254.246 114.13H252.188V122.622H253.903V122.735Z" fill="#009DA8"/>
<path d="M277.224 120.131C277.224 120.924 277.11 121.603 276.881 122.169C276.653 122.735 276.31 123.302 275.852 123.754C275.395 124.207 274.823 124.547 274.252 124.773C273.68 125 272.994 125.113 272.194 125.113C271.508 125.113 270.822 125 270.136 124.773C269.565 124.547 268.993 124.207 268.536 123.754C268.079 123.302 267.736 122.849 267.507 122.169C267.278 121.603 267.164 120.924 267.164 120.131V112.206H269.45V120.018C269.45 120.358 269.45 120.697 269.565 120.924C269.679 121.264 269.793 121.603 270.022 121.83C270.251 122.169 270.479 122.396 270.937 122.509C271.28 122.735 271.737 122.735 272.308 122.735C272.88 122.735 273.337 122.622 273.68 122.509C274.023 122.283 274.366 122.056 274.595 121.83C274.823 121.603 274.938 121.264 275.052 120.924C275.166 120.584 275.166 120.245 275.166 120.018V112.206H277.453V120.131H277.224Z" fill="#009DA8"/>
<path d="M292.429 112.206H295.858L299.173 120.924L302.603 112.206H306.033V124.66H303.861V114.357L300.088 124.773H298.373L294.601 114.357V124.773H292.429V112.206V112.206Z" fill="#009DA8"/>
<path d="M316.436 112.206H318.379L323.752 124.66H321.237L320.094 121.83H314.607L313.463 124.66H310.948L316.436 112.206ZM319.294 119.905L317.35 114.81L315.407 119.905H319.294Z" fill="#009DA8"/>
<path d="M328.668 112.206H330.954V124.66H328.668V112.206Z" fill="#009DA8"/>
<path d="M337.242 112.206H340.214L346.273 121.49V112.206H348.559V124.66H345.701L339.528 115.036V124.66H337.242V112.206V112.206Z" fill="#009DA8"/>
<path d="M357.591 114.244H353.704V112.206H363.65V114.244H359.763V124.66H357.476V114.244H357.591Z" fill="#009DA8"/>
<path d="M368.68 112.206H370.966V124.66H368.68V112.206Z" fill="#009DA8"/>
<path d="M377.254 112.206H385.599V114.244H379.54V117.301H385.37V119.339H379.54V122.735H385.942V124.773H377.254V112.206Z" fill="#009DA8"/>
<path d="M391.658 112.206H394.63L400.689 121.49V112.206H402.975V124.66H400.117L393.944 115.036V124.66H391.658V112.206V112.206Z" fill="#009DA8"/>
<path d="M422.295 112.206H424.239L429.612 124.66H427.097L425.953 121.83H420.466L419.323 124.66H416.808L422.295 112.206ZM424.124 111.413H422.409L419.894 108.922H422.295L424.124 111.413ZM425.153 119.905L423.21 114.81L421.266 119.905H425.153Z" fill="#009DA8"/>
<path d="M443.444 112.206H448.36C449.16 112.206 449.961 112.319 450.761 112.545C451.561 112.772 452.247 113.225 452.819 113.677C453.39 114.244 453.847 114.81 454.19 115.602C454.533 116.395 454.762 117.301 454.762 118.32C454.762 119.339 454.533 120.358 454.19 121.15C453.733 121.943 453.276 122.622 452.59 123.075C451.904 123.641 451.218 123.981 450.418 124.207C449.618 124.434 448.817 124.547 448.131 124.547H443.444V112.206V112.206ZM447.446 122.735C448.131 122.735 448.817 122.622 449.389 122.509C449.961 122.396 450.532 122.056 450.989 121.716C451.447 121.377 451.79 120.924 452.133 120.358C452.361 119.792 452.476 119.225 452.476 118.433C452.476 117.64 452.361 117.074 452.133 116.508C451.904 115.942 451.561 115.489 451.104 115.149C450.646 114.81 450.189 114.583 449.618 114.357C449.046 114.244 448.36 114.13 447.674 114.13H445.616V122.622H447.446V122.735Z" fill="#009DA8"/>
<path d="M459.906 118.546C459.906 117.527 460.021 116.621 460.364 115.829C460.707 115.036 461.164 114.357 461.735 113.791C462.307 113.225 462.993 112.772 463.793 112.432C464.593 112.092 465.508 111.979 466.422 111.979C467.451 111.979 468.366 112.092 469.166 112.432C469.966 112.772 470.652 113.225 471.338 113.791C471.91 114.357 472.367 115.036 472.71 115.829C473.053 116.621 473.167 117.527 473.167 118.546C473.167 119.565 473.053 120.358 472.71 121.264C472.367 122.056 471.91 122.736 471.338 123.302C470.767 123.868 470.081 124.321 469.166 124.66C468.366 125 467.451 125.113 466.422 125.113C465.394 125.113 464.593 125 463.793 124.66C462.993 124.321 462.307 123.868 461.735 123.302C461.164 122.736 460.707 122.056 460.364 121.264C460.021 120.358 459.906 119.452 459.906 118.546ZM462.193 118.433C462.193 119.112 462.307 119.678 462.536 120.245C462.764 120.811 462.993 121.264 463.45 121.716C463.793 122.169 464.25 122.396 464.822 122.736C465.394 122.962 465.965 123.075 466.537 123.075C467.223 123.075 467.794 122.962 468.366 122.736C468.937 122.509 469.395 122.169 469.738 121.716C470.081 121.264 470.424 120.811 470.652 120.245C470.881 119.678 470.995 119.112 470.995 118.433C470.995 117.867 470.881 117.188 470.652 116.735C470.424 116.168 470.195 115.716 469.738 115.263C469.395 114.81 468.937 114.583 468.366 114.357C467.794 114.13 467.223 114.017 466.537 114.017C465.851 114.017 465.279 114.13 464.822 114.357C464.25 114.583 463.793 114.923 463.45 115.263C463.107 115.716 462.764 116.168 462.536 116.735C462.307 117.188 462.193 117.754 462.193 118.433Z" fill="#009DA8"/>
<path d="M478.998 112.206H482.427L485.742 120.924L489.172 112.206H492.602V124.66H490.43V114.357L486.657 124.773H485.056L481.284 114.357V124.773H478.998V112.206Z" fill="#009DA8"/>
<path d="M498.889 112.206H501.175V124.66H498.889V112.206Z" fill="#009DA8"/>
<path d="M516.151 115.149C515.694 114.697 515.237 114.357 514.779 114.13C514.322 114.017 513.865 113.904 513.522 113.904C512.836 113.904 512.264 114.017 511.807 114.244C511.236 114.47 510.778 114.81 510.435 115.149C510.092 115.602 509.749 116.055 509.521 116.621C509.292 117.188 509.178 117.754 509.178 118.32C509.178 118.999 509.292 119.565 509.521 120.131C509.749 120.697 509.978 121.15 510.435 121.603C510.778 122.056 511.236 122.283 511.807 122.622C512.379 122.849 512.95 122.962 513.522 122.962C513.979 122.962 514.551 122.849 515.008 122.622C515.465 122.396 515.923 121.943 516.38 121.49L518.209 122.849C517.637 123.641 516.952 124.207 516.151 124.547C515.351 124.887 514.437 125.113 513.522 125.113C512.493 125.113 511.693 125 510.893 124.66C510.092 124.321 509.406 123.868 508.835 123.302C508.263 122.736 507.806 122.056 507.463 121.264C507.12 120.471 507.006 119.565 507.006 118.546C507.006 117.527 507.12 116.621 507.463 115.829C507.806 115.036 508.263 114.357 508.835 113.791C509.406 113.225 510.092 112.772 510.893 112.432C511.693 112.092 512.607 111.979 513.522 111.979C514.322 111.979 515.122 112.092 515.923 112.432C516.609 112.772 517.295 113.225 517.98 113.904L516.151 115.149Z" fill="#009DA8"/>
<path d="M523.125 112.206H525.411V124.66H523.125V112.206Z" fill="#009DA8"/>
<path d="M531.699 112.206H533.985V122.622H539.358V124.66H531.813V112.206H531.699Z" fill="#009DA8"/>
<path d="M544.502 112.206H552.848V114.244H546.789V117.301H552.619V119.339H546.789V122.735H553.191V124.773H544.502V112.206Z" fill="#009DA8"/>
</svg>
